<svg width="20" height="14" viewBox="0 0 20 14" fill="none" xmlns="http://www.w3.org/2000/svg">
<g clip-path="url(#clip0_76_2843)">
<path d="M18.3788 0H1.62957C1.19738 0 0.782893 0.171686 0.477289 0.477289C0.171686 0.782892 0 1.19738 0 1.62957L0 11.953C0 12.167 0.04215 12.3789 0.124043 12.5766C0.205937 12.7743 0.32597 12.9539 0.477289 13.1052C0.628609 13.2566 0.808251 13.3766 1.00596 13.4585C1.20367 13.5404 1.41557 13.5825 1.62957 13.5825H18.3788C18.811 13.5825 19.2255 13.4108 19.5311 13.1052C19.8367 12.7996 20.0084 12.3851 20.0084 11.953V1.62957C20.0084 1.19738 19.8367 0.782892 19.5311 0.477289C19.2255 0.171686 18.811 0 18.3788 0ZM0.839983 3.13314H19.16V5.1155H0.839983V3.13314ZM1.62957 0.839983H18.3788C18.5882 0.839983 18.7891 0.923171 18.9372 1.07125C19.0852 1.21932 19.1684 1.42016 19.1684 1.62957V2.29315H0.839983V1.62957C0.839983 1.42016 0.923171 1.21932 1.07125 1.07125C1.21932 0.923171 1.42016 0.839983 1.62957 0.839983ZM18.3788 12.7425H1.62957C1.42016 12.7425 1.21932 12.6594 1.07125 12.5113C0.923171 12.3632 0.839983 12.1624 0.839983 11.953V5.95548H19.16V11.9446C19.1611 12.0483 19.1418 12.1511 19.1031 12.2474C19.0645 12.3436 19.0072 12.4313 18.9347 12.5054C18.8622 12.5795 18.7757 12.6385 18.6804 12.6792C18.585 12.7199 18.4825 12.7414 18.3788 12.7425Z" fill="#1A162E"/>
<path d="M16.3212 8.22324C16.0924 8.22324 15.8662 8.27192 15.6576 8.36606C15.4491 8.46019 15.263 8.59763 15.1116 8.76923C14.892 8.52113 14.6021 8.34585 14.2803 8.26675C13.9586 8.18765 13.6204 8.2085 13.3109 8.3265C13.0013 8.44451 12.735 8.65407 12.5476 8.92725C12.3602 9.20043 12.2604 9.52426 12.2617 9.85556C12.263 10.1869 12.3653 10.5099 12.5548 10.7816C12.7444 11.0533 13.0123 11.2608 13.3228 11.3764C13.6333 11.492 13.9716 11.5102 14.2927 11.4285C14.6138 11.3469 14.9024 11.1694 15.12 10.9196C15.3005 11.1205 15.5284 11.2731 15.7829 11.3636C16.0374 11.454 16.3105 11.4794 16.5773 11.4375C16.8442 11.3956 17.0963 11.2877 17.3108 11.1236C17.5254 10.9595 17.6955 10.7444 17.8058 10.4978C17.916 10.2513 17.9629 9.98105 17.9422 9.71174C17.9215 9.44243 17.8339 9.18257 17.6872 8.95575C17.5405 8.72893 17.3395 8.54235 17.1024 8.41296C16.8653 8.28357 16.5997 8.21547 16.3296 8.21484L16.3212 8.22324ZM13.9104 10.634C13.7543 10.634 13.6016 10.5877 13.4718 10.5009C13.3419 10.4142 13.2407 10.2908 13.1809 10.1466C13.1212 10.0023 13.1055 9.84354 13.136 9.69037C13.1665 9.53721 13.2417 9.39652 13.3521 9.28609C13.4625 9.17567 13.6032 9.10046 13.7564 9.07C13.9096 9.03953 14.0683 9.05517 14.2126 9.11493C14.3569 9.17469 14.4802 9.2759 14.5669 9.40574C14.6537 9.53559 14.7 9.68825 14.7 9.84441C14.7 10.0538 14.6168 10.2547 14.4687 10.4027C14.3207 10.5508 14.1198 10.634 13.9104 10.634ZM16.3212 10.634C16.165 10.634 16.0124 10.5877 15.8825 10.5009C15.7527 10.4142 15.6515 10.2908 15.5917 10.1466C15.5319 10.0023 15.5163 9.84354 15.5468 9.69037C15.5772 9.53721 15.6524 9.39652 15.7629 9.28609C15.8733 9.17567 16.014 9.10046 16.1671 9.07C16.3203 9.03953 16.4791 9.05517 16.6233 9.11493C16.7676 9.17469 16.8909 9.2759 16.9777 9.40574C17.0645 9.53559 17.1108 9.68825 17.1108 9.84441C17.1108 10.0538 17.0276 10.2547 16.8795 10.4027C16.7314 10.5508 16.5306 10.634 16.3212 10.634Z" fill="#1A162E"/>
</g>
<defs>
<clipPath id="clip0_76_2843">
<rect width="20" height="13.5825" fill="white"/>
</clipPath>
</defs>
</svg>
