<svg width="20" height="21" viewBox="0 0 20 21" fill="none" xmlns="http://www.w3.org/2000/svg">
<path d="M19.6386 15.2302L17.5904 13.2839C17.3896 13.0677 17.2691 12.8205 17.2691 12.5425V8.52641C17.2691 6.0241 15.1004 3.79981 11.9679 3.12017V1.54464C11.9679 0.679642 11.0442 0 9.95984 0C8.8755 0 7.95181 0.710535 7.95181 1.54464V3.08928C4.77912 3.79981 2.61044 6.0241 2.6506 8.52641V12.5425C2.6506 12.8205 2.53012 13.0677 2.32932 13.2839L0.281124 15.2302C0.120482 15.3846 0 15.6009 0 15.8171V18.2576H20V15.8171C19.9197 15.6009 19.7992 15.3846 19.6386 15.2302ZM9.11647 1.54464C9.11647 1.20482 9.47791 0.926784 9.91968 0.926784C10.3614 0.926784 10.7229 1.20482 10.7229 1.54464V2.93482C10.1606 2.87303 9.63855 2.87303 9.07631 2.93482V1.54464H9.11647ZM18.7149 17.3H1.1245V15.8171L3.17269 13.8709C3.5743 13.5002 3.7751 13.0368 3.7751 12.5425V8.52641C3.7751 5.93142 6.50602 3.79981 9.91968 3.79981C13.3333 3.79981 16.0643 5.90052 16.0643 8.52641V12.5425C16.0643 13.0368 16.2651 13.5002 16.6667 13.8709L18.7149 15.8171V17.3Z" fill="#1A162E"/>
<path d="M9.11523 4.84961V5.77639C11.565 5.77639 13.5731 7.32103 13.5731 9.2055H14.7779C14.7779 6.79586 12.2478 4.84961 9.11523 4.84961Z" fill="#1A162E"/>
<path d="M9.92013 20.0195C8.75547 20.0195 7.83177 19.309 7.83177 18.4131H6.62695C6.62695 19.8033 8.1129 20.9463 9.92013 20.9463C11.7274 20.9463 13.2133 19.8033 13.2133 18.4131H12.0085C12.0085 19.309 11.0848 20.0195 9.92013 20.0195Z" fill="#1A162E"/>
</svg>
