<svg width="23" height="24" viewBox="0 0 23 24" fill="none" xmlns="http://www.w3.org/2000/svg">
<path d="M2.26402 9.1029C2.30402 8.5301 2.56399 7.9956 2.98399 7.6059C3.40399 7.2162 3.94402 6.9999 4.51402 7H18.1739C18.7439 6.9999 19.284 7.2162 19.704 7.6059C20.124 7.9956 20.3839 8.5301 20.4239 9.1029L21.334 20.5314C21.364 20.8459 21.324 21.1623 21.224 21.4605C21.114 21.7587 20.954 22.0324 20.744 22.2643C20.534 22.4962 20.274 22.6813 19.984 22.8079C19.704 22.9345 19.394 22.9999 19.084 23H3.60398C3.29398 22.9999 2.98396 22.9345 2.70396 22.8079C2.41396 22.6813 2.15395 22.4962 1.94395 22.2643C1.73395 22.0324 1.57397 21.7587 1.46397 21.4605C1.36397 21.1623 1.32398 20.8459 1.35398 20.5314L2.26402 9.1029Z" stroke="white" stroke-width="2" stroke-linecap="round" stroke-linejoin="round"/>
<path d="M15.344 10V5C15.344 3.9391 14.924 2.9217 14.174 2.1716C13.424 1.4214 12.404 1 11.344 1C10.284 1 9.26404 1.4214 8.51404 2.1716C7.76404 2.9217 7.34399 3.9391 7.34399 5V10" stroke="white" stroke-width="2" stroke-linecap="round" stroke-linejoin="round"/>
</svg>
