<svg width="110" height="110" viewBox="0 0 110 110" fill="none" xmlns="http://www.w3.org/2000/svg">
<circle cx="55" cy="55" r="55" fill="#E5E5E5"/>
<path d="M37.615 66.0936H40.0152C40.3288 67.1725 40.9837 68.1206 41.8813 68.7964C42.7791 69.4719 43.8715 69.8389 44.9951 69.8416C46.1235 69.85 47.2233 69.4881 48.1257 68.8109C49.0283 68.1337 49.6837 67.1792 49.9912 66.0936H57.7948C58.1095 67.1759 58.7671 68.1265 59.6689 68.8023C60.5707 69.4783 61.6678 69.843 62.7948 69.8416C63.9237 69.8511 65.0247 69.4892 65.9278 68.8121C66.8313 68.1349 67.4873 67.1798 67.7948 66.0936H70.5509C71.0615 66.0947 71.5515 65.8924 71.9125 65.5313C72.2735 65.1703 72.4758 64.6801 72.4747 64.1695V60.4856C72.4719 60.0559 72.3274 59.6391 72.0634 59.2998C71.7992 58.9605 71.4306 58.718 71.0149 58.6095V58.5735H57.3949C57.0023 58.5735 56.6259 58.4178 56.3483 58.1402C56.0707 57.8626 55.9147 57.4862 55.9147 57.0936V44.5779C55.9147 44.2818 55.7972 43.9981 55.588 43.7885C55.3787 43.5793 55.0947 43.4618 54.7989 43.4618H50.0427C48.954 43.4685 47.9322 43.9889 47.2869 44.8658C47.235 44.9177 47.1828 45.0218 47.1309 45.0737L43.1309 51.1097L40.3109 51.5098C39.5029 51.6208 38.7623 52.0207 38.2263 52.6356C37.6904 53.2503 37.3948 54.0383 37.3948 54.8539V59.8098C36.9247 59.8695 36.4922 60.0972 36.1769 60.451C35.8616 60.8045 35.6845 61.2601 35.6786 61.7339V64.1698C35.6778 64.6826 35.8817 65.1745 36.2453 65.5358C36.6088 65.8972 37.1021 66.0981 37.6147 66.0939L37.615 66.0936ZM62.8151 62.0336C63.5012 62.045 64.1558 62.3224 64.6409 62.8076C65.126 63.2928 65.4038 63.9476 65.4149 64.6334C65.4149 65.3232 65.1412 65.9844 64.6535 66.4721C64.1658 66.9596 63.5045 67.2336 62.8151 67.2336C62.1253 67.2336 61.464 66.9596 60.9766 66.4721C60.4889 65.9844 60.2149 65.3231 60.2149 64.6334C60.2149 63.944 60.4889 63.2827 60.9766 62.795C61.4641 62.3076 62.1253 62.0336 62.8151 62.0336ZM44.995 62.0375C45.6812 62.0489 46.3358 62.3265 46.8209 62.8118C47.3061 63.2967 47.5838 63.9515 47.5949 64.6376C47.593 65.3265 47.3184 65.9867 46.8313 66.4738C46.3441 66.9607 45.684 67.2355 44.995 67.2375C44.3089 67.2263 43.6543 66.9487 43.1692 66.4635C42.684 65.9783 42.4063 65.3234 42.3952 64.6376C42.3971 63.9487 42.6717 63.2885 43.1588 62.8014C43.646 62.3142 44.3061 62.0397 44.995 62.0375ZM58.415 54.9817V41.2617C58.415 40.9743 58.5294 40.6986 58.7326 40.4953C58.936 40.2918 59.2116 40.1777 59.499 40.1777H64.6589L64.6591 44.2098C64.6591 44.3998 64.8132 44.5538 65.0032 44.5538H67.7152H67.715C67.8062 44.5538 67.8938 44.5176 67.9583 44.4531C68.0227 44.3884 68.059 44.301 68.059 44.2098V40.1777H73.2191C73.5065 40.1777 73.7822 40.2919 73.9856 40.4953C74.189 40.6987 74.3031 40.9743 74.3031 41.2617V54.9817C74.3031 55.2691 74.189 55.5447 73.9856 55.7481C73.7822 55.9512 73.5065 56.0656 73.2191 56.0656H59.4948C59.208 56.0645 58.9335 55.9498 58.7309 55.7467C58.5286 55.5436 58.4148 55.2685 58.4148 54.9817L58.415 54.9817Z" fill="#005D63"/>
</svg>
