<svg width="15" height="13" viewBox="0 0 15 13" fill="none" xmlns="http://www.w3.org/2000/svg">
<path d="M10.9711 0C9.59093 0 8.41157 0.957075 7.76361 1.61691C7.11565 0.957075 5.93892 0 4.55937 0C2.18155 0 0.521484 1.61242 0.521484 3.92055C0.521484 6.46378 2.58323 8.10759 4.57781 9.69759C5.51946 10.449 6.49403 11.2255 7.24142 12.0864C7.3672 12.2306 7.55158 12.3139 7.74517 12.3139H7.78337C7.97762 12.3139 8.16134 12.2299 8.28646 12.0864C9.03516 11.2255 10.0091 10.4484 10.9514 9.69759C12.9453 8.10823 15.0084 6.46442 15.0084 3.92055C15.0084 1.61242 13.3483 0 10.9711 0Z" fill="#F86624"/>
</svg>
