<svg width="25" height="24" viewBox="0 0 25 24" fill="none" xmlns="http://www.w3.org/2000/svg">
<path fill-rule="evenodd" clip-rule="evenodd" d="M16.7041 8.72688C16.7041 9.88418 16.2441 10.9941 15.4341 11.8125C14.6141 12.6308 13.5041 13.0906 12.3441 13.0906C11.1841 13.0906 10.0742 12.6308 9.25415 11.8125C8.44415 10.9941 7.98413 9.88418 7.98413 8.72688C7.98413 7.56958 8.44415 6.45968 9.25415 5.64138C10.0742 4.82298 11.1841 4.36328 12.3441 4.36328C13.5041 4.36328 14.6141 4.82298 15.4341 5.64138C16.2441 6.45968 16.7041 7.56958 16.7041 8.72688ZM14.5242 8.72688C14.5242 9.30558 14.2942 9.86048 13.8842 10.2697C13.4742 10.6789 12.9241 10.9087 12.3441 10.9087C11.7641 10.9087 11.2141 10.6789 10.8041 10.2697C10.3941 9.86048 10.1641 9.30558 10.1641 8.72688C10.1641 8.14828 10.3941 7.59328 10.8041 7.18408C11.2141 6.77498 11.7641 6.54508 12.3441 6.54508C12.9241 6.54508 13.4742 6.77498 13.8842 7.18408C14.2942 7.59328 14.5242 8.14828 14.5242 8.72688Z" fill="white"/>
<path fill-rule="evenodd" clip-rule="evenodd" d="M12.344 0C5.71399 0 0.343994 5.3727 0.343994 12C0.343994 18.6273 5.71399 24 12.344 24C18.974 24 24.344 18.6273 24.344 12C24.344 5.3727 18.974 0 12.344 0ZM2.52405 12C2.52405 14.28 3.304 16.3789 4.604 18.0458C5.524 16.8435 6.70396 15.8692 8.05396 15.1989C9.41395 14.5286 10.9039 14.1805 12.4139 14.1818C13.9039 14.1804 15.374 14.5195 16.724 15.1732C18.064 15.827 19.2341 16.7781 20.1541 17.9542C21.0941 16.7145 21.734 15.2675 22.004 13.733C22.284 12.1985 22.184 10.6206 21.734 9.1298C21.274 7.639 20.474 6.2782 19.384 5.16C18.304 4.0418 16.964 3.1984 15.484 2.6995C14.014 2.2005 12.434 2.0605 10.894 2.2909C9.35404 2.5213 7.88402 3.1155 6.62402 4.0244C5.35402 4.9333 4.32401 6.1308 3.61401 7.5177C2.89401 8.9046 2.52405 10.4411 2.52405 12ZM12.344 21.8182C10.094 21.8216 7.90405 21.0462 6.15405 19.6233C6.86405 18.6161 7.79403 17.7937 8.88403 17.2262C9.97403 16.6587 11.1839 16.3628 12.4139 16.3636C13.6239 16.3627 14.8241 16.6512 15.9041 17.2052C16.9841 17.7592 17.914 18.5628 18.624 19.5491C16.864 21.0182 14.634 21.8214 12.344 21.8182Z" fill="white"/>
</svg>
