<svg width="110" height="110" viewBox="0 0 110 110" fill="none" xmlns="http://www.w3.org/2000/svg">
<circle cx="55" cy="55" r="55" fill="#E5E5E5"/>
<path d="M67.4447 42.2284C66.4769 41.4353 65.2519 41 63.9825 41H45.3041C44.0347 41 42.8005 41.4348 41.8419 42.2284L39.1877 44.4117H70.0907L67.4447 42.2284Z" fill="#005D63"/>
<path d="M73.2853 49.3926C73.2853 48.5823 73.0812 47.7891 72.6726 47.0387C72.3619 46.4755 71.7583 46.1172 71.0925 46.1172H38.1837C37.5179 46.1172 36.9143 46.4755 36.6123 47.0383C36.2041 47.7888 36 48.5823 36 49.3926V64.8819C36 67.7049 38.3882 69.9995 41.3265 69.9995H67.9592C70.8975 69.9995 73.2857 67.7049 73.2857 64.8819L73.2853 49.3926ZM67.9588 59.7643C67.9588 60.7025 67.1598 61.4701 66.1833 61.4701H53.7547C52.7782 61.4701 51.9792 60.7025 51.9792 59.7643V52.9408C51.9792 52.0025 52.7782 51.2349 53.7547 51.2349H66.1833C67.1598 51.2349 67.9588 52.0025 67.9588 52.9408V59.7643Z" fill="#005D63"/>
<path d="M55.5302 54.6465H64.4077V58.0582H55.5302V54.6465Z" fill="#005D63"/>
</svg>
