<svg width="110" height="110" viewBox="0 0 110 110" fill="none" xmlns="http://www.w3.org/2000/svg">
<circle cx="55" cy="55" r="55" fill="#E5E5E5"/>
<path fill-rule="evenodd" clip-rule="evenodd" d="M43.5415 38.418C40.711 38.418 38.4165 40.7125 38.4165 43.543V67.4596C38.4165 70.2901 40.711 72.5846 43.5415 72.5846H67.4582C70.2886 72.5846 72.5832 70.2901 72.5832 67.4596V50.3763C72.5832 48.1448 71.157 46.2465 69.1665 45.5429V43.543C69.1665 40.7125 66.872 38.418 64.0415 38.418H43.5415ZM43.5415 41.8346C42.598 41.8346 41.8332 42.5995 41.8332 43.543C41.8332 44.4865 42.598 45.2513 43.5415 45.2513H65.7498V43.543C65.7498 42.5995 64.985 41.8346 64.0415 41.8346H43.5415ZM64.0415 55.5013C62.1545 55.5013 60.6248 57.031 60.6248 58.918C60.6248 60.8049 62.1545 62.3346 64.0415 62.3346H67.4582C68.4017 62.3346 69.1665 61.5698 69.1665 60.6263V57.2096C69.1665 56.2662 68.4017 55.5013 67.4582 55.5013H64.0415Z" fill="#005D63"/>
</svg>
