<svg width="26" height="24" viewBox="0 0 26 24" fill="none" xmlns="http://www.w3.org/2000/svg">
<path d="M12.474 22.1122L13.244 21.4675C11.954 19.9359 10.284 18.5686 8.75403 17.314L8.69397 17.2655C7.02397 15.8952 5.43402 14.5821 4.24402 13.0967C3.07402 11.6352 2.34399 10.0639 2.34399 8.1861C2.34399 6.457 2.94394 5.0484 3.91394 4.0742C4.89394 3.1 6.30394 2.5 8.03394 2.5C9.87394 2.5 11.574 3.8506 12.614 4.9477L13.344 5.7062L14.064 4.9477C15.114 3.8514 16.8141 2.5 18.6541 2.5C20.3841 2.5 21.794 3.0999 22.774 4.0741C23.744 5.0484 24.344 6.457 24.344 8.1861C24.344 10.0643 23.614 11.6358 22.444 13.0974C21.254 14.5829 19.654 15.8953 17.984 17.2652L17.964 17.2813C16.424 18.5445 14.754 19.922 13.444 21.4659C13.424 21.4891 13.394 21.5 13.374 21.5H13.314C13.284 21.5 13.264 21.4886 13.244 21.4656L12.474 22.1122ZM12.474 22.1122C12.684 22.358 12.994 22.5 13.314 22.5H13.374C13.694 22.5 14.004 22.3569 14.204 22.1122L12.624 3.562C11.504 2.5611 9.87394 1.5 8.03394 1.5C4.09394 1.5 1.34399 4.2498 1.34399 8.1861C1.34399 12.5233 4.76396 15.3267 8.06396 18.0382L8.08398 18.0568C9.64398 19.3325 11.244 20.6509 12.474 22.1122Z" stroke="white" stroke-width="2"/>
</svg>
